<svg width="239" height="45" viewBox="0 0 239 45" fill="none" xmlns="http://www.w3.org/2000/svg">
<path d="M0.351952 37V24.02H2.33195V37H0.351952ZM2.99195 37V24.02H3.65195V37H2.99195ZM5.63195 37V24.02H6.95195V37H5.63195ZM2.06795 38.914H2.59595L3.14595 42.368L3.98195 39.288H4.15795L4.97195 42.39L5.43395 38.914H5.91795L5.12595 44.018H4.90595L4.02595 40.696L3.12395 44.018H2.88195L2.06795 38.914ZM11.9037 37V24.02H12.5637V37H11.9037ZM14.5437 37V24.02H16.5237V37H14.5437ZM17.1837 37V24.02H18.5037V37H17.1837ZM15.5337 44.106C14.947 44.106 14.4997 43.8787 14.1917 43.424C13.869 42.9693 13.7077 42.324 13.7077 41.488C13.7077 40.6813 13.869 40.0433 14.1917 39.574C14.5143 39.1193 14.9617 38.892 15.5337 38.892C16.1057 38.892 16.553 39.1193 16.8757 39.574C17.1983 40.0433 17.3597 40.6813 17.3597 41.488C17.3597 42.324 17.1983 42.9693 16.8757 43.424C16.5677 43.8787 16.1203 44.106 15.5337 44.106ZM15.5337 43.6C15.9297 43.6 16.2303 43.424 16.4357 43.072C16.6557 42.7053 16.7657 42.1773 16.7657 41.488C16.7657 40.8427 16.6557 40.3293 16.4357 39.948C16.2157 39.5813 15.915 39.398 15.5337 39.398C15.1523 39.398 14.8517 39.5813 14.6317 39.948C14.4117 40.3293 14.3017 40.8427 14.3017 41.488C14.3017 42.1773 14.4043 42.7053 14.6097 43.072C14.8297 43.424 15.1377 43.6 15.5337 43.6ZM23.4554 37V24.02H24.7754V37H23.4554ZM26.7554 37V24.02H27.4154V37H26.7554ZM28.0754 37V24.02H30.0554V37H28.0754ZM25.5014 38.914H26.9974C27.5841 38.914 28.0094 39.046 28.2734 39.31C28.5521 39.5593 28.6914 39.9187 28.6914 40.388C28.6914 40.6813 28.5961 40.96 28.4054 41.224C28.2147 41.488 27.9654 41.664 27.6574 41.752L28.8454 44.018H28.2074L27.0634 41.774H26.0734V44.018H25.5014V38.914ZM27.0634 41.268C27.4154 41.268 27.6794 41.1873 27.8554 41.026C28.0167 40.8793 28.0974 40.6667 28.0974 40.388C28.0974 40.1093 28.0167 39.882 27.8554 39.706C27.6794 39.5447 27.4154 39.464 27.0634 39.464H26.0734V41.268H27.0634ZM35.0071 37V24.02H35.6671V37H35.0071ZM37.6471 37V24.02H38.9671V37H37.6471ZM39.6271 37V24.02H41.6071V37H39.6271ZM37.1411 38.914H37.8011V38.98C37.7718 39.0093 37.7498 39.046 37.7351 39.09C37.7351 39.1193 37.7351 39.1853 37.7351 39.288V43.534H40.1771V44.018H37.1411V38.914ZM46.5588 37V24.02H47.2188V37H46.5588ZM47.8788 37V24.02H49.1988V37H47.8788ZM51.1788 37V24.02H51.8388V37H51.1788ZM48.5828 38.914H49.7708C50.1962 38.914 50.5262 38.9727 50.7608 39.09C51.0102 39.2073 51.2228 39.3833 51.3988 39.618C51.7362 40.058 51.9048 40.6813 51.9048 41.488C51.8755 42.324 51.6848 42.9547 51.3328 43.38C50.9808 43.82 50.4308 44.0327 49.6828 44.018H48.5828V38.914ZM49.6388 43.578C50.7682 43.578 51.3328 42.896 51.3328 41.532C51.3328 40.8427 51.2082 40.3147 50.9588 39.948C50.6948 39.5813 50.2842 39.398 49.7268 39.398H49.1328V43.578H49.6388ZM58.1105 37V24.02H60.0905V37H58.1105ZM60.7505 37V24.02H61.4105V37H60.7505ZM63.3905 37V24.02H64.7105V37H63.3905ZM59.8265 38.914H60.3545L60.9045 42.368L61.7405 39.288H61.9165L62.7305 42.39L63.1925 38.914H63.6765L62.8845 44.018H62.6645L61.7845 40.696L60.8825 44.018H60.6405L59.8265 38.914ZM69.6623 37V24.02H70.9823V37H69.6623ZM72.9623 37V24.02H73.6223V37H72.9623ZM75.6023 37V24.02H76.2623V37H75.6023ZM71.9063 43.534H72.9183V39.398H71.9723V38.914H74.5023V39.398H73.4903V43.534H74.5463V44.018H71.9063V43.534ZM81.214 37V24.02H81.874V37H81.214ZM82.534 37V24.02H83.854V37H82.534ZM85.834 37V24.02H86.494V37H85.834ZM83.238 38.914H84.426C84.8513 38.914 85.1813 38.9727 85.416 39.09C85.6653 39.2073 85.878 39.3833 86.054 39.618C86.3913 40.058 86.56 40.6813 86.56 41.488C86.5306 42.324 86.34 42.9547 85.988 43.38C85.636 43.82 85.086 44.0327 84.338 44.018H83.238V38.914ZM84.294 43.578C85.4233 43.578 85.988 42.896 85.988 41.532C85.988 40.8427 85.8633 40.3147 85.614 39.948C85.35 39.5813 84.9393 39.398 84.382 39.398H83.788V43.578H84.294ZM92.7657 37V24.02H93.4257V37H92.7657ZM95.4057 37V24.02H96.7257V37H95.4057ZM97.3857 37V24.02H98.0457V37H97.3857ZM94.8337 38.914H97.9577V39.42H95.3617V41.092H97.5177V41.62H95.3617V43.512H97.9357V44.018H94.8337V38.914ZM104.317 37V24.02H105.637V37H104.317ZM106.297 37V24.02H107.617V37H106.297ZM108.937 37V24.02H110.257V37H108.937ZM115.869 37V24.02H116.529V37H115.869ZM118.509 37V24.02H120.489V37H118.509ZM121.149 37V24.02H122.469V37H121.149ZM119.499 44.106C118.912 44.106 118.465 43.8787 118.157 43.424C117.834 42.9693 117.673 42.324 117.673 41.488C117.673 40.6813 117.834 40.0433 118.157 39.574C118.48 39.1193 118.927 38.892 119.499 38.892C120.071 38.892 120.518 39.1193 120.841 39.574C121.164 40.0433 121.325 40.6813 121.325 41.488C121.325 42.324 121.164 42.9693 120.841 43.424C120.533 43.8787 120.086 44.106 119.499 44.106ZM119.499 43.6C119.895 43.6 120.196 43.424 120.401 43.072C120.621 42.7053 120.731 42.1773 120.731 41.488C120.731 40.8427 120.621 40.3293 120.401 39.948C120.181 39.5813 119.88 39.398 119.499 39.398C119.118 39.398 118.817 39.5813 118.597 39.948C118.377 40.3293 118.267 40.8427 118.267 41.488C118.267 42.1773 118.37 42.7053 118.575 43.072C118.795 43.424 119.103 43.6 119.499 43.6ZM127.421 37V24.02H128.741V37H127.421ZM129.401 37V24.02H130.061V37H129.401ZM132.041 37V24.02H132.701V37H132.041ZM131.271 44.106C130.86 44.106 130.508 43.996 130.215 43.776C129.922 43.5707 129.694 43.27 129.533 42.874C129.372 42.4927 129.291 42.0453 129.291 41.532C129.291 40.8573 129.394 40.322 129.599 39.926C129.804 39.53 130.054 39.2513 130.347 39.09C130.64 38.9433 130.934 38.87 131.227 38.87C131.535 38.87 131.828 38.9507 132.107 39.112C132.4 39.2587 132.613 39.464 132.745 39.728L132.349 40.036L132.283 40.102L132.261 40.058C132.261 40.014 132.254 39.97 132.239 39.926C132.21 39.8967 132.166 39.8453 132.107 39.772C131.975 39.6253 131.843 39.5227 131.711 39.464C131.579 39.4053 131.418 39.376 131.227 39.376C130.831 39.376 130.501 39.53 130.237 39.838C129.988 40.1607 129.863 40.6813 129.863 41.4C129.863 42.104 129.988 42.6467 130.237 43.028C130.486 43.4093 130.831 43.6 131.271 43.6C131.432 43.6 131.601 43.5707 131.777 43.512C131.968 43.468 132.122 43.3947 132.239 43.292V42.082H131.315V41.576H132.767V43.578C132.283 43.93 131.784 44.106 131.271 44.106ZM138.973 37V24.02H140.293V37H138.973ZM140.953 37V24.02H142.273V37H140.953ZM143.593 37V24.02H144.913V37H143.593ZM150.524 37V24.02H151.184V37H150.524ZM153.164 37V24.02H153.824V37H153.164ZM154.484 37V24.02H155.804V37H154.484ZM152.504 38.914H153.956C154.514 38.914 154.932 39.024 155.21 39.244C155.504 39.464 155.65 39.772 155.65 40.168C155.65 40.4173 155.584 40.6447 155.452 40.85C155.306 41.0553 155.115 41.202 154.88 41.29C155.174 41.3927 155.408 41.5613 155.584 41.796C155.76 42.0453 155.848 42.3093 155.848 42.588C155.848 43.028 155.687 43.38 155.364 43.644C155.056 43.8933 154.58 44.018 153.934 44.018H152.504V38.914ZM153.868 41.026C154.675 41.026 155.078 40.7547 155.078 40.212C155.078 39.9773 154.983 39.7867 154.792 39.64C154.616 39.4787 154.338 39.398 153.956 39.398H153.054V41.026H153.868ZM154.044 43.512C154.836 43.512 155.232 43.1893 155.232 42.544C155.232 41.8547 154.785 41.51 153.89 41.51H153.054V43.512H154.044ZM162.076 37V24.02H163.396V37H162.076ZM165.376 37V24.02H166.036V37H165.376ZM166.696 37V24.02H168.676V37H166.696ZM164.122 38.914H165.618C166.205 38.914 166.63 39.046 166.894 39.31C167.173 39.5593 167.312 39.9187 167.312 40.388C167.312 40.6813 167.217 40.96 167.026 41.224C166.835 41.488 166.586 41.664 166.278 41.752L167.466 44.018H166.828L165.684 41.774H164.694V44.018H164.122V38.914ZM165.684 41.268C166.036 41.268 166.3 41.1873 166.476 41.026C166.637 40.8793 166.718 40.6667 166.718 40.388C166.718 40.1093 166.637 39.882 166.476 39.706C166.3 39.5447 166.036 39.464 165.684 39.464H164.694V41.268H165.684ZM173.628 37V24.02H174.288V37H173.628ZM174.948 37V24.02H175.608V37H174.948ZM177.588 37V24.02H178.908V37H177.588ZM178.072 42.522H176.422L175.916 44.018H175.344L177.214 38.826H177.28L179.172 44.018H178.578L178.072 42.522ZM177.918 42.082L177.258 40.146L176.576 42.082H177.918ZM185.179 37V24.02H185.839V37H185.179ZM186.499 37V24.02H188.479V37H186.499ZM190.459 37V24.02H191.779V37H190.459ZM187.181 38.914H187.731L189.865 42.698V38.914H190.503V38.98C190.459 39.0093 190.437 39.046 190.437 39.09C190.423 39.1193 190.415 39.1853 190.415 39.288V44.018H189.975L187.709 40.014V44.018H187.181V38.914ZM196.731 37V24.02H197.391V37H196.731ZM198.051 37V24.02H199.371V37H198.051ZM201.351 37V24.02H202.011V37H201.351ZM198.755 38.914H199.943C200.369 38.914 200.699 38.9727 200.933 39.09C201.183 39.2073 201.395 39.3833 201.571 39.618C201.909 40.058 202.077 40.6813 202.077 41.488C202.048 42.324 201.857 42.9547 201.505 43.38C201.153 43.82 200.603 44.0327 199.855 44.018H198.755V38.914ZM199.811 43.578C200.941 43.578 201.505 42.896 201.505 41.532C201.505 40.8427 201.381 40.3147 201.131 39.948C200.867 39.5813 200.457 39.398 199.899 39.398H199.305V43.578H199.811ZM208.283 37V24.02H208.943V37H208.283ZM210.923 37V24.02H212.243V37H210.923ZM212.903 37V24.02H213.563V37H212.903ZM210.351 38.914H213.475V39.42H210.879V41.092H213.035V41.62H210.879V43.512H213.453V44.018H210.351V38.914ZM219.835 37V24.02H221.155V37H219.835ZM223.135 37V24.02H223.795V37H223.135ZM224.455 37V24.02H226.435V37H224.455ZM221.881 38.914H223.377C223.963 38.914 224.389 39.046 224.653 39.31C224.931 39.5593 225.071 39.9187 225.071 40.388C225.071 40.6813 224.975 40.96 224.785 41.224C224.594 41.488 224.345 41.664 224.037 41.752L225.225 44.018H224.587L223.443 41.774H222.453V44.018H221.881V38.914ZM223.443 41.268C223.795 41.268 224.059 41.1873 224.235 41.026C224.396 40.8793 224.477 40.6667 224.477 40.388C224.477 40.1093 224.396 39.882 224.235 39.706C224.059 39.5447 223.795 39.464 223.443 39.464H222.453V41.268H223.443ZM231.386 37V24.02H232.706V37H231.386ZM233.366 37V24.02H235.346V37H233.366ZM236.006 37V24.02H236.666V37H236.006ZM234.994 44.106C234.334 44.106 233.799 43.886 233.388 43.446L233.696 42.94L233.718 42.874L233.784 42.896C233.784 42.9107 233.792 42.94 233.806 42.984C233.806 43.0133 233.821 43.05 233.85 43.094C233.865 43.1233 233.894 43.1527 233.938 43.182C234.246 43.446 234.628 43.578 235.082 43.578C235.376 43.578 235.625 43.4973 235.83 43.336C236.036 43.16 236.138 42.9547 236.138 42.72C236.138 42.5587 236.102 42.4193 236.028 42.302C235.97 42.1993 235.86 42.0967 235.698 41.994C235.537 41.8913 235.288 41.7667 234.95 41.62C234.452 41.4293 234.092 41.2093 233.872 40.96C233.667 40.7107 233.564 40.432 233.564 40.124C233.564 39.7427 233.704 39.4347 233.982 39.2C234.261 38.9653 234.635 38.848 235.104 38.848C235.383 38.848 235.647 38.9067 235.896 39.024C236.131 39.1413 236.344 39.2953 236.534 39.486L236.16 39.992L236.116 39.948C236.116 39.9333 236.109 39.9113 236.094 39.882C236.094 39.838 236.08 39.8013 236.05 39.772C236.036 39.728 236.006 39.6913 235.962 39.662C235.845 39.5447 235.706 39.4567 235.544 39.398C235.398 39.354 235.222 39.332 235.016 39.332C234.752 39.332 234.547 39.4053 234.4 39.552C234.239 39.6987 234.158 39.8747 234.158 40.08C234.158 40.2413 234.188 40.3807 234.246 40.498C234.32 40.6153 234.444 40.7253 234.62 40.828C234.796 40.9453 235.06 41.07 235.412 41.202C235.896 41.4073 236.234 41.6127 236.424 41.818C236.6 42.038 236.688 42.3093 236.688 42.632C236.688 42.8813 236.63 43.116 236.512 43.336C236.38 43.556 236.19 43.7393 235.94 43.886C235.676 44.0327 235.361 44.106 234.994 44.106Z" fill="#0A0A0A"/>
<path d="M3.89203 11H2.19703V0.95H3.89203V3.995L3.83203 5.96L5.28703 4.31L8.46703 0.95H10.522L6.78703 4.94L10.732 11H8.70703L5.57203 6.17L3.89203 7.94V11ZM14.1489 11H12.4539V0.95H14.1489V11ZM20.9393 11H17.1443V0.95H20.9393C24.0443 0.95 25.7243 2.87 25.7243 5.975C25.7243 9.08 24.0593 11 20.9393 11ZM20.7293 2.45H18.8393V9.5H20.7443C22.8143 9.5 23.9543 8.495 23.9543 5.975C23.9543 3.455 22.8143 2.45 20.7293 2.45ZM31.8553 11H28.0603V0.95H31.8553C34.9603 0.95 36.6403 2.87 36.6403 5.975C36.6403 9.08 34.9753 11 31.8553 11ZM31.6453 2.45H29.7553V9.5H31.6603C33.7303 9.5 34.8703 8.495 34.8703 5.975C34.8703 3.455 33.7303 2.45 31.6453 2.45ZM43.611 11.135C40.656 11.135 38.661 8.87 38.661 5.96C38.661 3.065 40.656 0.8 43.611 0.8C46.551 0.8 48.561 3.065 48.561 5.96C48.561 8.87 46.551 11.135 43.611 11.135ZM43.626 9.515C45.726 9.515 46.791 8.045 46.791 5.96C46.791 3.89 45.726 2.405 43.626 2.405C41.526 2.405 40.446 3.89 40.446 5.96C40.446 8.045 41.526 9.515 43.626 9.515ZM53.8302 3.755H53.0652V0.95H54.0402L54.3852 1.895L54.6102 2.645L54.8202 1.895L55.1802 0.95H56.1402V3.755H55.3752V3.005L55.5252 1.61L55.3302 2.18L55.0002 3.095H54.2052L53.8752 2.18L53.6802 1.61L53.8302 3.02V3.755ZM51.8952 3.755H51.1152V1.685H50.3202V0.95H52.6902V1.685H51.8952V3.755ZM66.8344 11H62.3494V0.95H66.9094C68.9494 0.95 69.9094 2.03 69.9094 3.515C69.9094 4.85 68.8594 5.645 67.2394 5.78C69.5194 5.96 70.3294 6.98 70.3294 8.33C70.3294 10.115 68.9944 11 66.8344 11ZM66.3994 2.45H64.0444V5.135H66.4594C67.4644 5.135 68.1544 4.82 68.1544 3.8C68.1544 2.78 67.4494 2.45 66.3994 2.45ZM66.6244 6.56H64.0444V9.5H66.5794C67.9594 9.5 68.5894 9.05 68.5894 8.03C68.5894 7.01 67.7944 6.56 66.6244 6.56ZM74.3891 11H72.6941V0.95H77.2241C79.2641 0.95 80.7941 2 80.7941 4.07C80.7941 5.75 79.6391 6.74 78.0641 6.92C78.6641 7.1 79.0691 7.475 79.4291 8.105L81.1391 11H79.1891L77.4491 8.015C77.0741 7.34 76.5641 7.1 75.6191 7.1H74.3891V11ZM77.0591 2.45H74.3891V5.72H77.0591C78.1241 5.72 79.0391 5.33 79.0391 4.115C79.0391 2.84 78.1241 2.45 77.0591 2.45ZM83.6598 11H81.8748L85.8048 0.95H87.7548L91.6848 11H89.8248L88.8648 8.465H84.6198L83.6598 11ZM86.2098 4.28L85.1748 6.995H88.3098L87.2898 4.28L86.7498 2.465L86.2098 4.28ZM94.8002 11H93.1052V0.95H94.6802L98.7452 6.8L99.7352 8.375L99.6302 6.47V0.95H101.325V11H99.7652L95.5952 5.06L94.6802 3.635L94.8002 5.465V11ZM108.109 11H104.314V0.95H108.109C111.214 0.95 112.894 2.87 112.894 5.975C112.894 9.08 111.229 11 108.109 11ZM107.899 2.45H106.009V9.5H107.914C109.984 9.5 111.124 8.495 111.124 5.975C111.124 3.455 109.984 2.45 107.899 2.45ZM116.925 11H115.23V0.95H116.925V11ZM121.616 11H119.921V0.95H121.496L125.561 6.8L126.551 8.375L126.446 6.47V0.95H128.141V11H126.581L122.411 5.06L121.496 3.635L121.616 5.465V11ZM134.602 11.12C132.022 11.12 130.477 9.155 130.477 5.96C130.477 3.005 132.202 0.8 135.322 0.8C137.437 0.8 138.997 1.82 139.687 3.635L138.217 4.685C137.917 3.395 136.957 2.405 135.337 2.405C133.237 2.405 132.277 3.875 132.277 5.96C132.277 8.09 133.252 9.53 135.232 9.53C136.927 9.53 137.677 8.615 138.037 7.22H135.142V5.795H139.732V11H138.652L138.187 7.22C138.112 9.485 136.837 11.12 134.602 11.12ZM147.831 11H146.136V0.95H150.666C152.706 0.95 154.236 2 154.236 4.07C154.236 5.75 153.081 6.74 151.506 6.92C152.106 7.1 152.511 7.475 152.871 8.105L154.581 11H152.631L150.891 8.015C150.516 7.34 150.006 7.1 149.061 7.1H147.831V11ZM150.501 2.45H147.831V5.72H150.501C151.566 5.72 152.481 5.33 152.481 4.115C152.481 2.84 151.566 2.45 150.501 2.45ZM158.043 11H156.348V0.95H158.043V11ZM165.337 11.135C162.382 11.135 160.387 8.87 160.387 5.96C160.387 3.065 162.382 0.8 165.337 0.8C168.277 0.8 170.287 3.065 170.287 5.96C170.287 8.87 168.277 11.135 165.337 11.135ZM165.352 9.515C167.452 9.515 168.517 8.045 168.517 5.96C168.517 3.89 167.452 2.405 165.352 2.405C163.252 2.405 162.172 3.89 162.172 5.96C162.172 8.045 163.252 9.515 165.352 9.515ZM175.756 11H174.061V2.45H170.986V0.95H178.846V2.45H175.756V11ZM188.815 11.15C186.895 11.15 185.14 10.46 184.36 8.765L185.56 7.55C186.1 9.02 187.615 9.59 188.845 9.59C189.85 9.59 190.66 9.23 190.66 8.315C190.66 7.34 189.85 7.07 188.545 6.785L187.6 6.575C186.175 6.275 184.66 5.63 184.66 3.725C184.66 1.835 186.295 0.815 188.185 0.815C190.03 0.815 191.5 1.58 192.22 2.96L190.945 4.175C190.39 2.93 189.31 2.39 188.08 2.39C187.12 2.39 186.43 2.84 186.43 3.605C186.43 4.49 187.12 4.805 188.215 5.075L189.34 5.345C190.945 5.735 192.385 6.365 192.385 8.285C192.385 10.1 190.855 11.15 188.815 11.15ZM197.986 11H196.291V2.45H193.216V0.95H201.076V2.45H197.986V11ZM206.379 11.15C203.694 11.15 202.389 9.755 202.389 6.71V0.95H204.069V6.725C204.069 8.72 204.744 9.53 206.394 9.53C208.074 9.53 208.719 8.72 208.719 6.725V0.95H210.399V6.71C210.399 9.755 209.124 11.15 206.379 11.15ZM217.073 11H213.278V0.95H217.073C220.178 0.95 221.858 2.87 221.858 5.975C221.858 9.08 220.193 11 217.073 11ZM216.863 2.45H214.973V9.5H216.878C218.948 9.5 220.088 8.495 220.088 5.975C220.088 3.455 218.948 2.45 216.863 2.45ZM225.889 11H224.194V0.95H225.889V11ZM233.182 11.135C230.227 11.135 228.232 8.87 228.232 5.96C228.232 3.065 230.227 0.8 233.182 0.8C236.122 0.8 238.132 3.065 238.132 5.96C238.132 8.87 236.122 11.135 233.182 11.135ZM233.197 9.515C235.297 9.515 236.362 8.045 236.362 5.96C236.362 3.89 235.297 2.405 233.197 2.405C231.097 2.405 230.017 3.89 230.017 5.96C230.017 8.045 231.097 9.515 233.197 9.515Z" fill="#0A0A0A"/>
</svg>
