<svg width="88" height="88" viewBox="0 0 88 88" fill="none" xmlns="http://www.w3.org/2000/svg">
<path fill-rule="evenodd" clip-rule="evenodd" d="M35.6377 46.5819C34.5818 45.7786 33.1695 45.377 31.4267 45.377H22.6484V55.4704H31.2648C32.0616 55.4704 32.8196 55.3991 33.5258 55.2372C34.2449 55.0817 34.8862 54.829 35.4304 54.4597C35.9681 54.1034 36.4152 53.6176 36.7456 52.9956C37.0695 52.3802 37.225 51.5833 37.225 50.618C37.225 48.7263 36.6937 47.3853 35.6377 46.5755V46.5819Z" fill="black"/>
<path fill-rule="evenodd" clip-rule="evenodd" d="M34.3654 38.8398C35.2918 38.1595 35.7453 37.0453 35.7453 35.5034C35.7453 34.6482 35.5963 33.9486 35.2983 33.3979C34.9873 32.8472 34.5727 32.4196 34.0544 32.1216C33.5361 31.8106 32.9531 31.5969 32.2793 31.4802C31.612 31.3507 30.9188 31.2988 30.2062 31.2988H22.6523V39.8634H30.8217C32.2534 39.8634 33.439 39.5265 34.3719 38.8333L34.3654 38.8398Z" fill="black"/>
<path fill-rule="evenodd" clip-rule="evenodd" d="M43.7296 0C19.5779 0 0 19.5779 0 43.7296C0 67.8813 19.5779 87.4592 43.7296 87.4592C67.8813 87.4592 87.4592 67.8813 87.4592 43.7296C87.4592 19.5779 67.8813 0 43.7296 0ZM53.4862 27.514H68.3478V31.1355H53.4862V27.514ZM44.209 55.8767C43.4899 57.2372 42.5117 58.345 41.3067 59.1937C40.0952 60.0553 38.6959 60.6838 37.1346 61.0919C35.5927 61.5001 33.986 61.7074 32.3405 61.7074H14.5701V25.0458H31.8546C33.6103 25.0458 35.191 25.1947 36.6357 25.5122C38.0739 25.8167 39.3048 26.322 40.3414 27.0217C41.365 27.7214 42.1618 28.6478 42.732 29.8204C43.2891 30.9735 43.5677 32.4183 43.5677 34.1221C43.5677 35.9685 43.1466 37.5103 42.3108 38.7412C41.4686 39.9721 40.2248 40.9828 38.5663 41.7667C40.8208 42.4145 42.4922 43.5547 43.6 45.1808C44.7143 46.8134 45.2585 48.7699 45.2585 51.0632C45.2585 52.9226 44.9022 54.5228 44.1896 55.8703L44.209 55.8767ZM74.133 50.1952H54.9762C54.9762 52.2942 55.6889 54.283 56.7837 55.3455C57.8721 56.4144 59.4528 56.9457 61.5 56.9457C62.9706 56.9457 64.2404 56.5764 65.3094 55.8314C66.3654 55.0928 67.0067 54.3025 67.2594 53.4797H73.6795C72.6495 56.6736 71.0817 58.954 68.9438 60.3274C66.8318 61.7073 64.2599 62.3941 61.2603 62.3941C59.1678 62.3941 57.289 62.0572 55.5982 61.3899C53.9073 60.7162 52.5015 59.7703 51.3094 58.5394C50.1498 57.302 49.2557 55.8379 48.6144 54.1146C47.9795 52.4043 47.6621 50.5061 47.6621 48.4589C47.6621 46.4117 47.9925 44.6172 48.6403 42.9069C49.3011 41.1901 50.2146 39.7065 51.4196 38.4562C52.6245 37.2058 54.0563 36.2211 55.7213 35.4955C57.3862 34.7764 59.2261 34.4136 61.2603 34.4136C63.5084 34.4136 65.4713 34.8477 67.1622 35.7287C68.8401 36.5968 70.22 37.7759 71.302 39.2465C72.3839 40.7171 73.1548 42.3951 73.6342 44.2868C74.1136 46.1656 74.2756 48.135 74.1395 50.1952H74.133Z" fill="black"/>
<path fill-rule="evenodd" clip-rule="evenodd" d="M61.03 39.9277C59.8639 39.9277 58.8986 40.1221 58.1277 40.5238C57.3762 40.919 56.7542 41.4113 56.2813 41.9879C55.8084 42.5774 55.4909 43.1929 55.3031 43.8602C55.1152 44.5015 55.005 45.0911 54.9727 45.6094H66.8347C66.6598 43.75 66.0249 42.3766 65.1568 41.4113C64.2887 40.4525 62.8246 39.9342 61.03 39.9342V39.9277Z" fill="black"/>
</svg>
