<svg width="31" height="20" viewBox="0 0 31 20" fill="none" xmlns="http://www.w3.org/2000/svg">
<path d="M8.37398 0.615433H8.35693C7.47645 0.615433 6.53343 0.615433 5.3906 0.615433H3.07408H0.75836H0.423718C0.298017 0.602939 0.171117 0.619056 0.0525211 0.662555C0.00842564 0.782702 -0.0079548 0.911244 0.00460012 1.03861C0.00460012 7.03624 0.00460012 12.9405 0.00460012 18.5831C-0.00893108 18.7087 0.00749082 18.8356 0.0525211 18.9535C0.172461 18.9996 0.301623 19.0166 0.429401 19.0031H4.47683C6.30682 19.0031 7.78917 19.0031 9.14237 19.0031C9.47461 19.0016 9.80651 18.9818 10.1366 18.9438C10.9388 18.854 11.7112 18.588 12.3987 18.1648C13.0628 17.7557 13.6363 17.2151 14.0841 16.5764C14.5319 15.9377 14.8445 15.2143 15.0027 14.4504C15.1645 13.6657 15.1506 12.855 14.9621 12.0762C14.6505 10.7503 13.872 9.58089 12.7691 8.78177L12.4393 8.53159L12.6164 8.15714L12.6415 8.1011C12.6599 8.05845 12.6807 8.01696 12.7041 7.97684C13.1479 7.24362 13.3873 6.40496 13.3974 5.54796C13.4075 4.69095 13.1881 3.84687 12.7617 3.10336C12.3422 2.36585 11.7382 1.75006 11.0089 1.31641C10.21 0.847012 9.29813 0.604369 8.37155 0.614615M2.59404 3.30154L3.02534 3.23411L3.09357 3.22113C3.18345 3.2008 3.27517 3.18963 3.3673 3.18781H4.5215C5.13069 3.18781 5.76018 3.18781 6.37992 3.18781C7.18567 3.18781 7.85577 3.18783 8.49176 3.19433C9.06239 3.19601 9.61218 3.40897 10.035 3.79214C10.451 4.17238 10.7115 4.69322 10.7661 5.25417C10.8171 5.79258 10.6689 6.33102 10.3494 6.76739C10.0314 7.21008 9.56744 7.52645 9.03921 7.66087C8.85971 7.70417 8.6756 7.72544 8.49095 7.72423C7.58692 7.72423 6.62278 7.72423 5.45964 7.72423H3.37217C3.29965 7.72317 3.22724 7.71801 3.1553 7.70878L3.06108 7.69822L2.59729 7.65598L2.59404 3.30154ZM11.9804 15.1953C11.6931 15.5941 11.3136 15.9175 10.8743 16.138C10.4351 16.3585 9.94898 16.4695 9.45753 16.4616C8.4081 16.4616 7.28964 16.4616 5.93887 16.4616H3.40385C3.32229 16.4603 3.2409 16.4538 3.16017 16.4421L3.0692 16.4315L2.60948 16.386V10.4103L3.07814 10.3721L3.17642 10.3624C3.26269 10.352 3.34946 10.3463 3.43634 10.3453H4.91463H7.03622C7.97761 10.3453 8.75899 10.3453 9.49489 10.3502C10.2603 10.3514 10.9983 10.6348 11.5677 11.1462C12.1324 11.6561 12.4875 12.3574 12.5644 13.1143C12.6371 13.8564 12.43 14.5988 11.9836 15.1961L11.9804 15.1953Z" fill="#0A0A0A"/>
<path d="M30.9461 11.8812C30.9069 11.3413 30.8276 10.8051 30.709 10.277C30.3279 8.75819 29.4495 7.41061 28.2137 6.44889C27.0289 5.52171 25.5701 5.01354 24.0656 5.00391C23.3939 5.0039 22.7264 5.10858 22.087 5.31418C21.189 5.60095 20.3586 6.06713 19.6462 6.68444C18.9544 7.28286 18.3849 8.00931 17.9689 8.82388C17.5343 9.66976 17.2713 10.5933 17.1951 11.5412C17.1188 12.4891 17.2308 13.4427 17.5246 14.3472C17.9731 15.7702 18.8569 17.0166 20.0514 17.9105C21.2046 18.7728 22.6062 19.2382 24.0461 19.2369C24.5047 19.2365 24.9621 19.1903 25.4115 19.0988C26.4484 18.8996 27.423 18.456 28.2543 17.8049C29.0037 17.1958 29.6258 16.445 30.0851 15.5956C29.6051 15.5956 29.1722 15.5915 28.766 15.5915C28.0951 15.5915 27.4867 15.5915 26.9068 15.6021C26.8771 15.6115 26.8495 15.6267 26.8256 15.6468C26.2032 16.2062 25.4213 16.5567 24.5895 16.6491C24.4376 16.6692 24.2846 16.6793 24.1314 16.6791C23.1213 16.6559 22.1506 16.2827 21.3852 15.6232C20.5904 14.9857 20.0678 14.0699 19.9231 13.0614L19.8549 12.4928H30.5855C30.6715 12.4947 30.7576 12.4903 30.843 12.4798C30.8757 12.4748 30.9066 12.4616 30.9329 12.4414C30.9592 12.4213 30.9799 12.3948 30.9932 12.3645C30.9754 12.1996 30.9591 12.0379 30.9461 11.8812ZM19.8995 10.4134L20.4681 9.60851C20.8735 9.01157 21.4023 8.50858 22.0187 8.13349C22.6456 7.77177 23.3581 7.58494 24.0818 7.59252H24.1216C24.8326 7.59069 25.531 7.78127 26.1425 8.14405C26.7439 8.52012 27.2569 9.02192 27.646 9.61501L28.1934 10.4134H19.8995Z" fill="#0A0A0A"/>
<path d="M27.1572 2.99769C27.1571 3.03211 27.1532 3.06643 27.1458 3.10004C27.119 3.10483 27.0918 3.107 27.0646 3.10653C26.0363 3.10653 24.9966 3.11059 23.978 3.11059C22.8506 3.11059 21.7094 3.11058 20.5877 3.10571C20.5605 3.10608 20.5333 3.10363 20.5065 3.0984C20.5015 3.07489 20.4988 3.05097 20.4984 3.02694C20.4797 2.50385 20.4797 1.97912 20.4984 1.46578C20.4988 1.44317 20.501 1.42064 20.5049 1.39838C20.5455 1.38988 20.5869 1.38605 20.6283 1.387C21.0344 1.387 21.4804 1.387 22.0286 1.387H25.6919H26.9525C27.0181 1.38537 27.0838 1.39081 27.1483 1.40324C27.1595 1.45966 27.1649 1.51709 27.1645 1.57462C27.1669 2.09202 27.1661 2.55826 27.1572 2.99769Z" fill="#0A0A0A"/>
</svg>
