<svg width="269" height="24" viewBox="0 0 269 24" fill="none" xmlns="http://www.w3.org/2000/svg">
<path d="M0.104492 15V0.249999H2.35449V15H0.104492ZM3.10449 15V0.249999H3.85449V15H3.10449ZM6.10449 15V0.249999H7.60449V15H6.10449ZM2.05449 17.175H2.65449L3.27949 21.1L4.22949 17.6H4.42949L5.35449 21.125L5.87949 17.175H6.42949L5.52949 22.975H5.27949L4.27949 19.2L3.25449 22.975H2.97949L2.05449 17.175ZM13.2314 15V0.249999H13.9814V15H13.2314ZM16.2314 15V0.249999H18.4814V15H16.2314ZM19.2314 15V0.249999H20.7314V15H19.2314ZM17.3564 23.075C16.6898 23.075 16.1814 22.8167 15.8314 22.3C15.4648 21.7833 15.2814 21.05 15.2814 20.1C15.2814 19.1833 15.4648 18.4583 15.8314 17.925C16.1981 17.4083 16.7064 17.15 17.3564 17.15C18.0064 17.15 18.5148 17.4083 18.8814 17.925C19.2481 18.4583 19.4314 19.1833 19.4314 20.1C19.4314 21.05 19.2481 21.7833 18.8814 22.3C18.5314 22.8167 18.0231 23.075 17.3564 23.075ZM17.3564 22.5C17.8064 22.5 18.1481 22.3 18.3814 21.9C18.6314 21.4833 18.7564 20.8833 18.7564 20.1C18.7564 19.3667 18.6314 18.7833 18.3814 18.35C18.1314 17.9333 17.7898 17.725 17.3564 17.725C16.9231 17.725 16.5814 17.9333 16.3314 18.35C16.0814 18.7833 15.9564 19.3667 15.9564 20.1C15.9564 20.8833 16.0731 21.4833 16.3064 21.9C16.5564 22.3 16.9064 22.5 17.3564 22.5ZM26.3584 15V0.249999H27.8584V15H26.3584ZM30.1084 15V0.249999H30.8584V15H30.1084ZM31.6084 15V0.249999H33.8584V15H31.6084ZM28.6834 17.175H30.3834C31.0501 17.175 31.5334 17.325 31.8334 17.625C32.1501 17.9083 32.3084 18.3167 32.3084 18.85C32.3084 19.1833 32.2001 19.5 31.9834 19.8C31.7667 20.1 31.4834 20.3 31.1334 20.4L32.4834 22.975H31.7584L30.4584 20.425H29.3334V22.975H28.6834V17.175ZM30.4584 19.85C30.8584 19.85 31.1584 19.7583 31.3584 19.575C31.5417 19.4083 31.6334 19.1667 31.6334 18.85C31.6334 18.5333 31.5417 18.275 31.3584 18.075C31.1584 17.8917 30.8584 17.8 30.4584 17.8H29.3334V19.85H30.4584ZM39.4854 15V0.249999H40.2354V15H39.4854ZM42.4854 15V0.249999H43.9854V15H42.4854ZM44.7354 15V0.249999H46.9854V15H44.7354ZM41.9104 17.175H42.6604V17.25C42.627 17.2833 42.602 17.325 42.5854 17.375C42.5854 17.4083 42.5854 17.4833 42.5854 17.6V22.425H45.3604V22.975H41.9104V17.175ZM52.6123 15V0.249999H53.3623V15H52.6123ZM54.1123 15V0.249999H55.6123V15H54.1123ZM57.8623 15V0.249999H58.6123V15H57.8623ZM54.9123 17.175H56.2623C56.7456 17.175 57.1206 17.2417 57.3873 17.375C57.6706 17.5083 57.9123 17.7083 58.1123 17.975C58.4956 18.475 58.6873 19.1833 58.6873 20.1C58.654 21.05 58.4373 21.7667 58.0373 22.25C57.6373 22.75 57.0123 22.9917 56.1623 22.975H54.9123V17.175ZM56.1123 22.475C57.3956 22.475 58.0373 21.7 58.0373 20.15C58.0373 19.3667 57.8956 18.7667 57.6123 18.35C57.3123 17.9333 56.8456 17.725 56.2123 17.725H55.5373V22.475H56.1123ZM65.7393 15V0.249999H67.9893V15H65.7393ZM68.7393 15V0.249999H69.4893V15H68.7393ZM71.7393 15V0.249999H73.2393V15H71.7393ZM67.6893 17.175H68.2893L68.9143 21.1L69.8643 17.6H70.0643L70.9893 21.125L71.5143 17.175H72.0643L71.1643 22.975H70.9143L69.9143 19.2L68.8893 22.975H68.6143L67.6893 17.175ZM78.8662 15V0.249999H80.3662V15H78.8662ZM82.6162 15V0.249999H83.3662V15H82.6162ZM85.6162 15V0.249999H86.3662V15H85.6162ZM81.4162 22.425H82.5662V17.725H81.4912V17.175H84.3662V17.725H83.2162V22.425H84.4162V22.975H81.4162V22.425ZM91.9932 15V0.249999H92.7432V15H91.9932ZM93.4932 15V0.249999H94.9932V15H93.4932ZM97.2432 15V0.249999H97.9932V15H97.2432ZM94.2932 17.175H95.6432C96.1265 17.175 96.5015 17.2417 96.7682 17.375C97.0515 17.5083 97.2932 17.7083 97.4932 17.975C97.8765 18.475 98.0682 19.1833 98.0682 20.1C98.0348 21.05 97.8182 21.7667 97.4182 22.25C97.0182 22.75 96.3932 22.9917 95.5432 22.975H94.2932V17.175ZM95.4932 22.475C96.7765 22.475 97.4182 21.7 97.4182 20.15C97.4182 19.3667 97.2765 18.7667 96.9932 18.35C96.6932 17.9333 96.2265 17.725 95.5932 17.725H94.9182V22.475H95.4932ZM105.12 15V0.249999H105.87V15H105.12ZM108.12 15V0.249999H109.62V15H108.12ZM110.37 15V0.249999H111.12V15H110.37ZM107.47 17.175H111.02V17.75H108.07V19.65H110.52V20.25H108.07V22.4H110.995V22.975H107.47V17.175ZM118.247 15V0.249999H119.747V15H118.247ZM120.497 15V0.249999H121.997V15H120.497ZM123.497 15V0.249999H124.997V15H123.497ZM131.374 15V0.249999H132.124V15H131.374ZM134.374 15V0.249999H136.624V15H134.374ZM137.374 15V0.249999H138.874V15H137.374ZM135.499 23.075C134.832 23.075 134.324 22.8167 133.974 22.3C133.607 21.7833 133.424 21.05 133.424 20.1C133.424 19.1833 133.607 18.4583 133.974 17.925C134.341 17.4083 134.849 17.15 135.499 17.15C136.149 17.15 136.657 17.4083 137.024 17.925C137.391 18.4583 137.574 19.1833 137.574 20.1C137.574 21.05 137.391 21.7833 137.024 22.3C136.674 22.8167 136.166 23.075 135.499 23.075ZM135.499 22.5C135.949 22.5 136.291 22.3 136.524 21.9C136.774 21.4833 136.899 20.8833 136.899 20.1C136.899 19.3667 136.774 18.7833 136.524 18.35C136.274 17.9333 135.932 17.725 135.499 17.725C135.066 17.725 134.724 17.9333 134.474 18.35C134.224 18.7833 134.099 19.3667 134.099 20.1C134.099 20.8833 134.216 21.4833 134.449 21.9C134.699 22.3 135.049 22.5 135.499 22.5ZM144.501 15V0.249999H146.001V15H144.501ZM146.751 15V0.249999H147.501V15H146.751ZM149.751 15V0.249999H150.501V15H149.751ZM148.876 23.075C148.409 23.075 148.009 22.95 147.676 22.7C147.343 22.4667 147.084 22.125 146.901 21.675C146.718 21.2417 146.626 20.7333 146.626 20.15C146.626 19.3833 146.743 18.775 146.976 18.325C147.209 17.875 147.493 17.5583 147.826 17.375C148.159 17.2083 148.493 17.125 148.826 17.125C149.176 17.125 149.509 17.2167 149.826 17.4C150.159 17.5667 150.401 17.8 150.551 18.1L150.101 18.45L150.026 18.525L150.001 18.475C150.001 18.425 149.993 18.375 149.976 18.325C149.943 18.2917 149.893 18.2333 149.826 18.15C149.676 17.9833 149.526 17.8667 149.376 17.8C149.226 17.7333 149.043 17.7 148.826 17.7C148.376 17.7 148.001 17.875 147.701 18.225C147.418 18.5917 147.276 19.1833 147.276 20C147.276 20.8 147.418 21.4167 147.701 21.85C147.984 22.2833 148.376 22.5 148.876 22.5C149.059 22.5 149.251 22.4667 149.451 22.4C149.668 22.35 149.843 22.2667 149.976 22.15V20.775H148.926V20.2H150.576V22.475C150.026 22.875 149.459 23.075 148.876 23.075ZM157.628 15V0.249999H159.128V15H157.628ZM159.878 15V0.249999H161.378V15H159.878ZM162.878 15V0.249999H164.378V15H162.878ZM170.755 15V0.249999H171.505V15H170.755ZM173.755 15V0.249999H174.505V15H173.755ZM175.255 15V0.249999H176.755V15H175.255ZM173.005 17.175H174.655C175.288 17.175 175.763 17.3 176.08 17.55C176.413 17.8 176.58 18.15 176.58 18.6C176.58 18.8833 176.505 19.1417 176.355 19.375C176.188 19.6083 175.972 19.775 175.705 19.875C176.038 19.9917 176.305 20.1833 176.505 20.45C176.705 20.7333 176.805 21.0333 176.805 21.35C176.805 21.85 176.622 22.25 176.255 22.55C175.905 22.8333 175.363 22.975 174.63 22.975H173.005V17.175ZM174.555 19.575C175.472 19.575 175.93 19.2667 175.93 18.65C175.93 18.3833 175.822 18.1667 175.605 18C175.405 17.8167 175.088 17.725 174.655 17.725H173.63V19.575H174.555ZM174.755 22.4C175.655 22.4 176.105 22.0333 176.105 21.3C176.105 20.5167 175.597 20.125 174.58 20.125H173.63V22.4H174.755ZM183.882 15V0.249999H185.382V15H183.882ZM187.632 15V0.249999H188.382V15H187.632ZM189.132 15V0.249999H191.382V15H189.132ZM186.207 17.175H187.907C188.574 17.175 189.057 17.325 189.357 17.625C189.674 17.9083 189.832 18.3167 189.832 18.85C189.832 19.1833 189.724 19.5 189.507 19.8C189.29 20.1 189.007 20.3 188.657 20.4L190.007 22.975H189.282L187.982 20.425H186.857V22.975H186.207V17.175ZM187.982 19.85C188.382 19.85 188.682 19.7583 188.882 19.575C189.065 19.4083 189.157 19.1667 189.157 18.85C189.157 18.5333 189.065 18.275 188.882 18.075C188.682 17.8917 188.382 17.8 187.982 17.8H186.857V19.85H187.982ZM197.009 15V0.249999H197.759V15H197.009ZM198.509 15V0.249999H199.259V15H198.509ZM201.509 15V0.249999H203.009V15H201.509ZM202.059 21.275H200.184L199.609 22.975H198.959L201.084 17.075H201.159L203.309 22.975H202.634L202.059 21.275ZM201.884 20.775L201.134 18.575L200.359 20.775H201.884ZM210.136 15V0.249999H210.886V15H210.136ZM211.636 15V0.249999H213.886V15H211.636ZM216.136 15V0.249999H217.636V15H216.136ZM212.411 17.175H213.036L215.461 21.475V17.175H216.186V17.25C216.136 17.2833 216.111 17.325 216.111 17.375C216.094 17.4083 216.086 17.4833 216.086 17.6V22.975H215.586L213.011 18.425V22.975H212.411V17.175ZM223.263 15V0.249999H224.013V15H223.263ZM224.763 15V0.249999H226.263V15H224.763ZM228.513 15V0.249999H229.263V15H228.513ZM225.563 17.175H226.913C227.396 17.175 227.771 17.2417 228.038 17.375C228.321 17.5083 228.563 17.7083 228.763 17.975C229.146 18.475 229.338 19.1833 229.338 20.1C229.304 21.05 229.088 21.7667 228.688 22.25C228.288 22.75 227.663 22.9917 226.813 22.975H225.563V17.175ZM226.763 22.475C228.046 22.475 228.688 21.7 228.688 20.15C228.688 19.3667 228.546 18.7667 228.263 18.35C227.963 17.9333 227.496 17.725 226.863 17.725H226.188V22.475H226.763ZM236.39 15V0.249999H237.14V15H236.39ZM239.39 15V0.249999H240.89V15H239.39ZM241.64 15V0.249999H242.39V15H241.64ZM238.74 17.175H242.29V17.75H239.34V19.65H241.79V20.25H239.34V22.4H242.265V22.975H238.74V17.175ZM249.517 15V0.249999H251.017V15H249.517ZM253.267 15V0.249999H254.017V15H253.267ZM254.767 15V0.249999H257.017V15H254.767ZM251.842 17.175H253.542C254.208 17.175 254.692 17.325 254.992 17.625C255.308 17.9083 255.467 18.3167 255.467 18.85C255.467 19.1833 255.358 19.5 255.142 19.8C254.925 20.1 254.642 20.3 254.292 20.4L255.642 22.975H254.917L253.617 20.425H252.492V22.975H251.842V17.175ZM253.617 19.85C254.017 19.85 254.317 19.7583 254.517 19.575C254.7 19.4083 254.792 19.1667 254.792 18.85C254.792 18.5333 254.7 18.275 254.517 18.075C254.317 17.8917 254.017 17.8 253.617 17.8H252.492V19.85H253.617ZM262.644 15V0.249999H264.144V15H262.644ZM264.894 15V0.249999H267.144V15H264.894ZM267.894 15V0.249999H268.644V15H267.894ZM266.744 23.075C265.994 23.075 265.385 22.825 264.919 22.325L265.269 21.75L265.294 21.675L265.369 21.7C265.369 21.7167 265.377 21.75 265.394 21.8C265.394 21.8333 265.41 21.875 265.444 21.925C265.46 21.9583 265.494 21.9917 265.544 22.025C265.894 22.325 266.327 22.475 266.844 22.475C267.177 22.475 267.46 22.3833 267.694 22.2C267.927 22 268.044 21.7667 268.044 21.5C268.044 21.3167 268.002 21.1583 267.919 21.025C267.852 20.9083 267.727 20.7917 267.544 20.675C267.36 20.5583 267.077 20.4167 266.694 20.25C266.127 20.0333 265.719 19.7833 265.469 19.5C265.235 19.2167 265.119 18.9 265.119 18.55C265.119 18.1167 265.277 17.7667 265.594 17.5C265.91 17.2333 266.335 17.1 266.869 17.1C267.185 17.1 267.485 17.1667 267.769 17.3C268.035 17.4333 268.277 17.6083 268.494 17.825L268.069 18.4L268.019 18.35C268.019 18.3333 268.01 18.3083 267.994 18.275C267.994 18.225 267.977 18.1833 267.944 18.15C267.927 18.1 267.894 18.0583 267.844 18.025C267.71 17.8917 267.552 17.7917 267.369 17.725C267.202 17.675 267.002 17.65 266.769 17.65C266.469 17.65 266.235 17.7333 266.069 17.9C265.885 18.0667 265.794 18.2667 265.794 18.5C265.794 18.6833 265.827 18.8417 265.894 18.975C265.977 19.1083 266.119 19.2333 266.319 19.35C266.519 19.4833 266.819 19.625 267.219 19.775C267.769 20.0083 268.152 20.2417 268.369 20.475C268.569 20.725 268.669 21.0333 268.669 21.4C268.669 21.6833 268.602 21.95 268.469 22.2C268.319 22.45 268.102 22.6583 267.819 22.825C267.519 22.9917 267.16 23.075 266.744 23.075Z" fill="#0A0A0A"/>
</svg>
