<svg width="88" height="88" viewBox="0 0 88 88" fill="none" xmlns="http://www.w3.org/2000/svg">
<path fill-rule="evenodd" clip-rule="evenodd" d="M62.0729 23.0712C57.1881 18.75 50.7614 16.1133 43.7323 16.1133C41.4843 16.1133 39.3075 16.3595 37.2344 16.8518C38.0053 17.9078 43.0326 24.7231 47.5611 33.048C57.3954 29.3617 61.5805 23.7708 62.0729 23.0712Z" fill="#010201"/>
<path fill-rule="evenodd" clip-rule="evenodd" d="M51.534 41.1635C51.7478 41.6559 51.9227 42.1482 52.13 42.6017C61.3359 41.4421 70.4706 43.3014 71.384 43.4828C71.3128 36.9849 68.9935 30.9729 65.1323 26.2695C64.5363 27.0405 59.8977 33.0136 49.707 37.1598C50.3419 38.462 50.9704 39.8289 51.534 41.1635Z" fill="#010201"/>
<path fill-rule="evenodd" clip-rule="evenodd" d="M45.6276 44.0097C45.9774 43.906 46.3661 43.7959 46.7159 43.6922C46.0162 42.1115 45.2777 40.5308 44.4679 38.9824C30.6623 43.1286 17.2389 42.9537 16.0469 42.9149V43.757C16.0469 50.851 18.7549 57.3553 23.1408 62.2336C23.7757 61.1776 31.362 48.6029 45.6276 43.9967V44.0097Z" fill="#010201"/>
<path fill-rule="evenodd" clip-rule="evenodd" d="M42.2176 34.6972C37.6179 26.5473 32.6943 19.6931 31.9558 18.7148C24.227 22.3687 18.4287 29.5015 16.6406 38.0725C17.8715 38.0725 29.2866 38.1437 42.2176 34.6972Z" fill="#010201"/>
<path fill-rule="evenodd" clip-rule="evenodd" d="M48.4672 48.2985C32.8671 53.7469 27.2502 64.5659 26.7578 65.583C31.4288 69.2369 37.3307 71.4136 43.7249 71.4136C47.5537 71.4136 51.2076 70.6427 54.544 69.198C54.1229 66.775 52.5421 58.3077 48.642 48.2207C48.5708 48.2531 48.5385 48.2531 48.4672 48.292V48.2985Z" fill="#010201"/>
<path fill-rule="evenodd" clip-rule="evenodd" d="M43.7296 0C19.5779 0 0 19.5779 0 43.7296C0 67.8813 19.5779 87.4592 43.7296 87.4592C67.8813 87.4592 87.4593 67.8813 87.4593 43.7296C87.4593 19.5779 67.8813 0 43.7296 0ZM43.7296 76.1219C25.8491 76.1219 11.3373 61.6102 11.3373 43.7296C11.3373 25.8491 25.8491 11.3373 43.7296 11.3373C61.6102 11.3373 76.1219 25.8491 76.1219 43.7296C76.1219 61.6102 61.5778 76.1219 43.7296 76.1219Z" fill="#010201"/>
<path fill-rule="evenodd" clip-rule="evenodd" d="M53.7773 46.962C57.3988 56.9064 58.8694 64.9851 59.1545 66.6695C65.3738 62.4908 69.7986 55.8504 70.9971 48.154C70.0512 47.8366 62.4585 45.5885 53.7838 46.962H53.7773Z" fill="#010201"/>
</svg>
