<svg width="25" height="25" viewBox="0 0 25 25" fill="none" xmlns="http://www.w3.org/2000/svg">
<path d="M17.8385 23.1531C15.8296 24.065 13.6082 24.4054 11.4183 24.137C9.22851 23.8686 7.15505 23.0018 5.42578 21.6318C6.3671 19.6647 7.71812 17.9216 9.38826 16.5195C11.0584 15.1173 13.0091 14.0885 15.1094 13.502C16.3426 16.6186 17.257 19.8522 17.8385 23.1531Z" fill="#0A0A0A"/>
<path d="M7.79193 1.13672C9.69559 3.47501 11.3767 5.98602 12.8132 8.63701C9.01987 10.0008 4.97911 10.5394 0.960938 10.2168C1.24658 8.25184 2.02195 6.39028 3.21567 4.80353C4.40939 3.21677 5.9831 1.9558 7.79193 1.13672Z" fill="#0A0A0A"/>
<path d="M13.4647 9.9043L14.558 12.2054C12.3553 12.8244 10.3085 13.9025 8.55223 15.3691C6.79825 16.8159 5.36245 18.6098 4.33505 20.6381C2.47338 19.5773 0.377786 14.2669 0.796093 11.6392C5.09469 11.9822 9.41658 11.3903 13.4647 9.9043Z" fill="#0A0A0A"/>
<path d="M9.21484 0.584431C11.0779 -0.0273891 13.0648 -0.161447 14.9932 0.194556C17.4444 0.625401 19.7007 1.80862 21.4489 3.58C19.2599 5.44582 16.7992 6.96703 14.1517 8.09122C12.7388 5.44345 11.0862 2.93069 9.21484 0.584431Z" fill="#0A0A0A"/>
<path d="M19.1499 22.4958C18.5743 19.3227 17.6907 16.2134 16.5117 13.2118C19.3128 12.7406 22.1899 13.0666 24.8145 14.1524C24.5128 15.8642 23.852 17.4926 22.8756 18.9307C21.8993 20.3687 20.6296 21.5837 19.1499 22.4958Z" fill="#0A0A0A"/>
<path d="M15.98 11.881L14.8242 9.36302C17.5783 8.18017 20.1378 6.58808 22.4163 4.64062C24.1985 6.92309 25.1108 9.76499 24.9903 12.6583C22.1177 11.566 18.9973 11.2968 15.98 11.881Z" fill="#0A0A0A"/>
</svg>
