<svg width="13" height="24" viewBox="0 0 13 24" fill="none" xmlns="http://www.w3.org/2000/svg">
<path d="M12.2278 3.34988C11.7527 3.36044 11.2694 3.3653 10.8007 3.36936C10.4896 3.36936 10.1688 3.37505 9.85118 3.37992C9.27643 3.34915 8.71216 3.54249 8.27705 3.91926C8.08351 4.13136 7.93436 4.38005 7.83838 4.65067C7.74241 4.92129 7.70157 5.20837 7.71824 5.49502C7.70687 6.13913 7.70929 6.76618 7.71254 7.4306C7.71254 7.71326 7.71254 8.00648 7.71254 8.29727V9.03561L8.45007 9.06971L8.56459 9.07621C8.64988 9.08108 8.73922 9.08596 8.83344 9.08596H12.1027V9.1152C12.1027 10.5772 12.1027 11.7038 12.1027 12.7516C11.6966 12.7516 11.2409 12.7516 10.687 12.7516H7.71499V23.6309C7.71499 23.7226 7.71499 23.7933 7.71499 23.855C7.65245 23.855 7.57364 23.855 7.4713 23.855H3.89742V23.8274C3.89742 21.3966 3.89742 18.9661 3.89742 16.5359V12.858L3.1664 12.815L3.05917 12.8077C2.97145 12.8012 2.88048 12.7947 2.77976 12.7939H1.13661H0.0806708H0.0733584C0.0692972 11.686 0.0692972 10.5017 0.0733584 9.17287C0.0733584 9.16718 0.0733584 9.1615 0.0733584 9.15582H3.89093V8.38256C3.89093 8.33058 3.89093 8.28184 3.89093 8.23554C3.89093 8.14863 3.89093 8.07309 3.89093 8.00161C3.89824 7.62879 3.89824 7.25272 3.89824 6.88883C3.89824 6.06928 3.89823 5.2952 3.96646 4.51951C4.01602 3.90499 4.17646 3.30454 4.44 2.74719C4.68833 2.22428 5.03149 1.75196 5.45206 1.35419C5.87416 0.955779 6.36589 0.638333 6.90274 0.417671C7.47662 0.18278 8.08778 0.0521238 8.70754 0.0318494C9.18596 0.01398 9.70661 0.00585938 10.3467 0.00585938C10.7235 0.00585938 11.1094 0.00586245 11.4838 0.0115482L12.2213 0.016419C12.2335 1.14869 12.2335 2.26878 12.2278 3.34988Z" fill="#0A0A0A"/>
</svg>
