<svg width="21" height="22" viewBox="0 0 21 22" fill="none" xmlns="http://www.w3.org/2000/svg">
<path d="M20.8705 10.9346C20.8705 12.196 20.8665 13.4574 20.8705 14.7188C20.9038 16.2594 20.3823 17.7607 19.4012 18.949C18.3925 20.2153 16.9349 21.0445 15.331 21.2647C14.9419 21.3195 14.5494 21.3466 14.1565 21.3459C11.6475 21.3532 9.13765 21.3459 6.62862 21.3459C5.22884 21.3667 3.86034 20.9313 2.72983 20.1056C1.44277 19.1952 0.542613 17.8364 0.206173 16.2962C0.0958847 15.8004 0.0392492 15.2942 0.0372322 14.7862C0.0209873 12.2163 0.019089 9.64606 0.0315434 7.07557C0.0255327 6.20785 0.192644 5.34765 0.523098 4.5453C0.853552 3.74294 1.34072 3.01455 1.95608 2.40274C2.57144 1.79093 3.30264 1.308 4.10689 0.9822C4.91115 0.6564 5.77231 0.494283 6.63998 0.50532C9.13575 0.508569 11.6315 0.508569 14.1273 0.50532C14.7988 0.491909 15.4688 0.573943 16.1173 0.748985C17.6363 1.16834 18.9486 2.13083 19.8049 3.45377C20.5318 4.56016 20.9044 5.86178 20.873 7.18524C20.8641 8.43934 20.8705 9.68695 20.8705 10.9346ZM10.4502 2.46445C9.18881 2.46445 7.92658 2.44821 6.66597 2.47258C6.20011 2.47957 5.73667 2.54118 5.28516 2.65615C4.322 2.93011 3.47645 3.51483 2.88016 4.31929C2.28386 5.12376 1.97028 6.10281 1.98824 7.10401C1.98337 9.65365 1.9785 12.2041 1.99555 14.7537C2.00099 15.2072 2.06265 15.6581 2.17912 16.0964C2.45349 17.0595 3.03843 17.9049 3.84298 18.5011C4.64752 19.0974 5.62656 19.411 6.6278 19.3933C9.17771 19.3982 11.7279 19.3982 14.2784 19.3933C14.6175 19.3961 14.9559 19.3629 15.288 19.2942C16.3236 19.0807 17.2526 18.5131 17.915 17.6889C18.5775 16.8647 18.9321 15.8354 18.9179 14.7781C18.9255 12.2147 18.9255 9.65121 18.9179 7.08776C18.9316 6.42764 18.7944 5.77312 18.5167 5.17411C18.1604 4.35244 17.5665 3.65607 16.8114 3.17452C16.0563 2.69297 15.1744 2.44823 14.2792 2.47176C13.0015 2.44658 11.7255 2.46445 10.4502 2.46445Z" fill="#0A0A0A"/>
<path d="M15.6578 10.9467C15.6546 11.9769 15.346 12.983 14.7711 13.8378C14.1962 14.6927 13.3807 15.3579 12.4278 15.7494C11.4749 16.1408 10.4274 16.241 9.41754 16.0373C8.40771 15.8335 7.48095 15.3349 6.75444 14.6045C6.02792 13.8742 5.53425 12.9448 5.33583 11.9339C5.13741 10.923 5.24315 9.87597 5.63968 8.92516C6.03621 7.97435 6.70573 7.16245 7.56361 6.59208C8.42149 6.02171 9.42921 5.71847 10.4594 5.72072C11.8415 5.72523 13.1653 6.27818 14.14 7.25805C15.1147 8.23793 15.6606 9.56463 15.6578 10.9467ZM10.4496 7.6758C9.80543 7.67468 9.1754 7.86476 8.6393 8.22195C8.1032 8.57915 7.68518 9.08738 7.43813 9.68233C7.19109 10.2773 7.12615 10.9321 7.25156 11.564C7.37696 12.1959 7.68704 12.7763 8.14255 13.2319C8.59807 13.6874 9.17853 13.9975 9.8104 14.1229C10.4423 14.2483 11.0971 14.1834 11.6921 13.9363C12.287 13.6893 12.7953 13.2712 13.1525 12.7351C13.5097 12.199 13.6997 11.569 13.6986 10.9248C13.6927 10.0651 13.3486 9.24227 12.7407 8.63427C12.1329 8.02628 11.3101 7.68197 10.4504 7.6758H10.4496Z" fill="#0A0A0A"/>
<path d="M16.0663 6.0229C15.8816 6.02616 15.7031 5.95611 15.5699 5.82809C15.4367 5.70007 15.3596 5.5245 15.3556 5.33979C15.353 5.20222 15.3913 5.06699 15.4656 4.95117C15.5399 4.83535 15.6468 4.74414 15.7729 4.68906C15.899 4.63399 16.0386 4.61751 16.174 4.64172C16.3095 4.66593 16.4347 4.72975 16.5339 4.8251C16.6331 4.92045 16.7019 5.04305 16.7314 5.17743C16.761 5.31181 16.75 5.45194 16.7 5.58011C16.6499 5.70828 16.5631 5.81876 16.4503 5.89757C16.3375 5.97638 16.2039 6.01998 16.0663 6.0229Z" fill="#0A0A0A"/>
</svg>
