<svg width="88" height="88" viewBox="0 0 88 88" fill="none" xmlns="http://www.w3.org/2000/svg">
<path d="M65.1864 27.4902C64.6876 26.2075 64.0916 25.2876 63.1263 24.3223C62.161 23.357 61.2475 22.761 59.9583 22.2621C58.9865 21.8864 57.5289 21.4393 54.8468 21.3163C51.9444 21.1867 51.0699 21.1543 43.7233 21.1543C36.3767 21.1543 35.5021 21.1802 32.5998 21.3163C29.9177 21.4393 28.46 21.8864 27.4883 22.2621C26.2055 22.761 25.2856 23.357 24.3203 24.3223C23.355 25.2876 22.759 26.201 22.2601 27.4902C21.8844 28.462 21.4374 29.9197 21.3143 32.6017C21.1847 35.5041 21.1523 36.3787 21.1523 43.7253C21.1523 51.0718 21.1783 51.9464 21.3143 54.8488C21.4374 57.5309 21.8844 58.9885 22.2601 59.9603C22.759 61.243 23.355 62.163 24.3203 63.1283C25.2856 64.0935 26.199 64.6896 27.4883 65.1884C28.46 65.5642 29.9177 66.0112 32.5998 66.1343C35.5021 66.2638 36.3702 66.2962 43.7233 66.2962C51.0763 66.2962 51.9444 66.2703 54.8468 66.1343C57.5289 66.0112 58.9865 65.5642 59.9583 65.1884C61.241 64.6896 62.161 64.0935 63.1263 63.1283C64.0916 62.163 64.6876 61.2495 65.1864 59.9603C65.5622 58.9885 66.0092 57.5309 66.1323 54.8488C66.2619 51.9464 66.2943 51.0718 66.2943 43.7253C66.2943 36.3787 66.2684 35.5041 66.1323 32.6017C66.0092 29.9197 65.5622 28.462 65.1864 27.4902ZM43.7233 57.8677C35.9167 57.8677 29.5873 51.5383 29.5873 43.7317C29.5873 35.9252 35.9167 29.5957 43.7233 29.5957C51.5298 29.5957 57.8593 35.9252 57.8593 43.7317C57.8593 51.5383 51.5298 57.8677 43.7233 57.8677ZM58.4229 32.3361C56.596 32.3361 55.1189 30.859 55.1189 29.0321C55.1189 27.2052 56.596 25.7281 58.4229 25.7281C60.2498 25.7281 61.727 27.2052 61.727 29.0321C61.727 30.859 60.2498 32.3361 58.4229 32.3361Z" fill="#010201"/>
<path d="M43.7268 52.9088C48.7968 52.9088 52.9068 48.7988 52.9068 43.7288C52.9068 38.6588 48.7968 34.5488 43.7268 34.5488C38.6569 34.5488 34.5469 38.6588 34.5469 43.7288C34.5469 48.7988 38.6569 52.9088 43.7268 52.9088Z" fill="#010201"/>
<path d="M43.7296 0C19.5779 0 0 19.5779 0 43.7296C0 67.8813 19.5779 87.4592 43.7296 87.4592C67.8813 87.4592 87.4592 67.8813 87.4592 43.7296C87.4592 19.5779 67.8813 0 43.7296 0ZM71.0946 55.0799C70.9586 58.0081 70.4986 60.01 69.8119 61.7657C69.1058 63.5731 68.1664 65.1085 66.6375 66.6439C65.1085 68.1729 63.5732 69.1187 61.7592 69.8184C60.01 70.4986 58.0082 70.9651 55.0734 71.1011C52.1387 71.2372 51.1993 71.2696 43.7231 71.2696C36.247 71.2696 35.3076 71.2372 32.3729 71.1011C29.4446 70.9651 27.4428 70.5051 25.6871 69.8184C23.8796 69.1122 22.3442 68.1729 20.8088 66.6439C19.2799 65.115 18.3341 63.5796 17.6344 61.7657C16.9542 60.0165 16.4877 58.0146 16.3516 55.0799C16.2156 52.1451 16.1832 51.2058 16.1832 43.7296C16.1832 36.2535 16.2156 35.3141 16.3516 32.3794C16.4877 29.4511 16.9477 27.4492 17.6344 25.6936C18.3405 23.8861 19.2799 22.3507 20.8088 20.8153C22.3377 19.2864 23.8731 18.3405 25.6871 17.6409C27.4363 16.9606 29.4382 16.4942 32.3729 16.3581C35.3076 16.2221 36.247 16.1897 43.7231 16.1897C51.1993 16.1897 52.1387 16.2221 55.0734 16.3581C58.0017 16.4942 60.0035 16.9541 61.7592 17.6409C63.5667 18.347 65.1021 19.2864 66.6375 20.8153C68.1664 22.3442 69.1122 23.8796 69.8119 25.6936C70.4922 27.4428 70.9586 29.4446 71.0946 32.3794C71.2307 35.3141 71.2631 36.2535 71.2631 43.7296C71.2631 51.2058 71.2307 52.1451 71.0946 55.0799Z" fill="#010201"/>
</svg>
