<svg width="87" height="87" viewBox="0 0 87 87" fill="none" xmlns="http://www.w3.org/2000/svg">
<path d="M43.2596 0C19.3675 0 0 19.3675 0 43.2596C0 67.1518 19.3675 86.5193 43.2596 86.5193C67.1518 86.5193 86.5193 67.1518 86.5193 43.2596C86.5193 19.3675 67.1518 0 43.2596 0ZM28.9808 66.8954C25.9045 66.8634 22.8283 66.8698 19.7456 66.8954C19.2521 66.8954 19.1047 66.7737 19.1047 66.2674C19.1176 55.3018 19.1176 44.3363 19.1047 33.3644C19.1047 32.9094 19.2137 32.7492 19.6944 32.7492C22.8155 32.7684 25.9366 32.7748 29.0577 32.7492C29.6601 32.7492 29.737 32.9735 29.737 33.4926C29.7242 38.9529 29.7306 44.4132 29.7306 49.8736C29.7306 55.3339 29.7242 60.7045 29.7434 66.12C29.7434 66.7224 29.596 66.9018 28.9744 66.8954H28.9808ZM24.4369 28.0515C21.0851 28.0515 18.3037 25.2829 18.2908 21.931C18.278 18.5472 21.0594 15.7593 24.4497 15.7593C27.8144 15.7593 30.583 18.5215 30.5894 21.8734C30.5894 25.2765 27.8336 28.0451 24.4369 28.0451V28.0515ZM69.5551 66.1905C69.5551 66.748 69.4013 66.8954 68.8501 66.8954C65.7739 66.8698 62.6912 66.8698 59.615 66.8954C59.0702 66.8954 58.9549 66.7352 58.9549 66.2225C58.9741 60.5379 58.9741 54.8532 58.9549 49.1622C58.9549 47.7394 58.8588 46.3102 58.4614 44.9259C57.7244 42.3752 55.8979 41.0742 53.2254 41.2152C49.5723 41.4075 47.6753 43.2148 47.2075 46.9255C47.0985 47.8099 47.0409 48.7007 47.0473 49.5916C47.0473 55.1224 47.0473 60.6532 47.0601 66.184C47.0601 66.7352 46.9255 66.8954 46.3615 66.8954C43.2597 66.8698 40.1578 66.8698 37.0559 66.8954C36.556 66.8954 36.415 66.7673 36.415 66.261C36.4278 55.3147 36.4278 44.362 36.415 33.4157C36.415 32.8709 36.5945 32.7492 37.1072 32.7492C40.0488 32.7684 42.9969 32.7748 45.9385 32.7492C46.4833 32.7492 46.6179 32.9222 46.6115 33.4349C46.5794 34.7423 46.5987 36.0497 46.5987 37.3635C47.31 36.5624 47.8932 35.7549 48.6238 35.0691C50.8669 32.9542 53.5202 31.8904 56.6221 31.916C58.3268 31.9288 60.0059 32.0506 61.6466 32.5248C65.4022 33.6079 67.5812 36.1971 68.6258 39.863C69.4077 42.6123 69.5487 45.4386 69.5551 48.2713C69.5679 54.2444 69.5359 60.2238 69.5551 66.1969V66.1905Z" fill="#010201"/>
</svg>
