<svg width="121" height="35" viewBox="0 0 121 35" fill="none" xmlns="http://www.w3.org/2000/svg">
<path d="M116.779 10.2959H114.449V9.78711H116.779V10.2959ZM115.9 12.6696H115.341V9.78711H115.9V12.6696ZM117.75 12.6696H117.211V9.78711H117.873L118.432 10.9744L118.649 11.6221L118.865 10.9744L119.388 9.78711H120.067V12.6696H119.527V11.4515L119.621 10.3108L119.374 10.9585L118.942 11.9604H118.341L117.897 10.9595L117.635 10.3118L117.744 11.4674L117.75 12.6696Z" fill="#0A0A0A"/>
<path d="M3.69322 0V27.8768C3.98458 25.6806 4.62416 23.5449 5.58785 21.55C8.70329 14.9659 14.8689 9.76385 20.2965 9.76385V14.2921C14.7729 14.2921 11.7535 15.6406 9.37706 18.0198L20.4568 34.4311H15.8335L6.9056 21.1977C6.53012 21.7946 6.19749 22.4175 5.91028 23.0615C4.31304 26.6324 3.55496 30.5217 3.69416 34.4311H0V0H3.69322Z" fill="#0A0A0A"/>
<path d="M29.2199 5.34369H25.7773V0H29.2199V5.34369ZM29.2199 34.4283H25.7773V9.71166H29.2199V34.4283Z" fill="#0A0A0A"/>
<path d="M44.332 34.994C42.3787 35.044 40.4578 34.4876 38.8336 33.4013C37.2433 32.2763 36.0133 30.7144 35.2923 28.9048C33.6474 24.5057 33.6474 19.6604 35.2923 15.2613C36.0184 13.4609 37.2479 11.9079 38.8336 10.788C40.4578 9.70166 42.3787 9.14524 44.332 9.19536C45.945 9.13677 47.5357 9.58593 48.8798 10.4795C50.0877 11.3293 51.0517 12.481 51.6756 13.8196C52.3218 15.1738 52.7054 16.6383 52.806 18.1354L52.5488 19.8827C52.5615 18.5753 52.2989 17.2798 51.7781 16.0805C51.2773 14.9321 50.4679 13.9449 49.4399 13.2288C48.2436 12.4487 46.8334 12.0622 45.4065 12.1235C44.3581 12.1008 43.3171 12.3048 42.3548 12.7215C41.3925 13.1383 40.5316 13.7579 39.8308 14.5381C38.3397 16.1485 37.5942 18.6663 37.5942 22.0914C37.5942 25.483 38.3478 27.9924 39.855 29.6195C40.5499 30.4018 41.4054 31.0249 42.3632 31.4461C43.321 31.8673 44.3585 32.0768 45.4047 32.0603C46.8278 32.1214 48.2356 31.7447 49.4381 30.9811C50.4634 30.2859 51.2734 29.3174 51.7763 28.1853C52.299 26.9954 52.5617 25.7077 52.547 24.4082L52.8042 26.0521C52.7102 27.5586 52.3264 29.0329 51.6737 30.394C51.0477 31.718 50.0925 32.8594 48.8994 33.7089C47.5506 34.6083 45.9519 35.0581 44.332 34.994ZM55.997 34.4283H52.5544V0H55.997V34.4283Z" fill="#0A0A0A"/>
<path d="M72.5816 34.994C70.6282 35.044 68.7074 34.4876 67.0832 33.4013C65.493 32.2762 64.2629 30.7144 63.5419 28.9048C61.8975 24.5056 61.8975 19.6605 63.5419 15.2613C64.2681 13.4609 65.4975 11.9079 67.0832 10.788C68.7074 9.70166 70.6282 9.14524 72.5816 9.19536C74.1943 9.1369 75.7847 9.58607 77.1285 10.4795C78.3381 11.3288 79.3037 12.4805 79.9289 13.8196C80.5742 15.1737 80.9568 16.6378 81.0565 18.1344L80.7993 19.8818C80.812 18.5743 80.5494 17.2788 80.0287 16.0795C79.5075 14.8411 78.6144 13.7952 77.473 13.0864C76.3316 12.3775 74.9981 12.0407 73.657 12.1225C72.6087 12.1 71.568 12.3041 70.6058 12.7208C69.6437 13.1376 68.7829 13.7571 68.0822 14.5372C66.5911 16.1475 65.8456 18.6653 65.8456 22.0905C65.8456 25.4821 66.5992 27.9915 68.1065 29.6186C68.8013 30.4009 69.6569 31.0239 70.6147 31.4452C71.5725 31.8664 72.6099 32.0759 73.6561 32.0593C75.0793 32.1204 76.487 31.7438 77.6895 30.9802C78.7147 30.2849 79.5247 29.3164 80.0277 28.1844C80.5504 26.9945 80.8132 25.7068 80.7984 24.4072L81.0556 26.0512C80.9617 27.5577 80.5779 29.032 79.9252 30.393C79.2989 31.7172 78.3434 32.8586 77.1499 33.7079C75.801 34.6079 74.2019 35.0581 72.5816 34.994ZM84.2456 34.4283H80.8031V0H84.2456V34.4283Z" fill="#0A0A0A"/>
<path d="M101.437 34.9434C99.3328 34.9767 97.2606 34.4254 95.4512 33.3508C93.6768 32.2787 92.2494 30.7174 91.3404 28.8542C90.3222 26.7318 89.8203 24.3988 89.8754 22.0455C89.8186 19.7004 90.3207 17.3755 91.3404 15.2629C92.2551 13.4097 93.6817 11.8574 95.4512 10.7897C97.2826 9.74606 99.3542 9.19727 101.462 9.19727C103.57 9.19727 105.642 9.74606 107.473 10.7897C109.219 11.8703 110.626 13.4204 111.533 15.2629C112.552 17.3756 113.054 19.7005 112.997 22.0455C113.052 24.3987 112.55 26.7317 111.533 28.8542C110.632 30.7066 109.224 32.2657 107.473 33.3508C105.65 34.4377 103.559 34.9896 101.437 34.9434ZM101.437 32.0144C102.921 32.0489 104.384 31.6565 105.651 30.8839C106.9 30.0716 107.883 28.9102 108.478 27.5439C109.214 25.807 109.563 23.9309 109.503 22.0455C109.56 20.1769 109.211 18.3182 108.478 16.5984C107.883 15.2323 106.9 14.0709 105.651 13.2583C104.383 12.4872 102.921 12.0958 101.437 12.1307C99.9558 12.0799 98.4942 12.4805 97.246 13.2794C95.9977 14.0783 95.0217 15.2377 94.4475 16.604C93.7143 18.3237 93.3644 20.1825 93.4223 22.0511C93.3613 23.9365 93.7112 25.8127 94.4475 27.5495C95.0217 28.9157 95.9977 30.0751 97.246 30.874C98.4942 31.6729 99.9558 32.0735 101.437 32.0227V32.0144Z" fill="#0A0A0A"/>
</svg>
