<svg width="88" height="87" viewBox="0 0 88 87" fill="none" xmlns="http://www.w3.org/2000/svg">
<path d="M43.9885 0C19.6959 0 0 19.3538 0 43.2244C0 61.5417 11.5831 77.1975 27.9453 83.4931C27.5482 80.0766 27.2226 74.8111 28.0886 71.0811C28.8829 67.703 33.2323 49.5968 33.2323 49.5968C33.2323 49.5968 31.9301 46.9992 31.9301 43.1925C31.9301 37.1784 35.4786 32.6998 39.8931 32.6998C43.6565 32.6998 45.4665 35.4765 45.4665 38.7843C45.4665 42.4823 43.077 48.0357 41.8073 53.1924C40.759 57.4982 44.0146 61.0171 48.3249 61.0171C56.1446 61.0171 62.1543 52.9045 62.1543 41.2411C62.1543 30.8892 54.5885 23.666 43.7606 23.666C31.2334 23.666 23.889 32.879 23.889 42.4119C23.889 46.1099 25.3344 50.0958 27.1445 52.2647C27.5091 52.6934 27.5417 53.0837 27.431 53.5123C27.1054 54.8623 26.3436 57.8181 26.2004 58.4195C26.0181 59.2001 25.5493 59.3792 24.7159 58.989C19.2141 56.4618 15.7762 48.5987 15.7762 42.2328C15.7762 28.6052 25.8423 16.0844 44.848 16.0844C60.0903 16.0844 71.9664 26.7562 71.9664 41.0555C71.9664 55.3549 62.4082 67.9461 49.1583 67.9461C44.7047 67.9461 40.5051 65.6684 39.0922 62.9685C39.0922 62.9685 36.885 71.2218 36.3381 73.25C35.3614 77.0183 32.6789 81.7144 30.8688 84.5999C34.9968 85.8475 39.3396 86.5193 43.9039 86.5193C68.1965 86.5193 87.8924 67.1655 87.8924 43.2948C87.964 19.3538 68.2681 0 43.982 0L43.9885 0Z" fill="#010201"/>
</svg>
