<svg width="25" height="25" viewBox="0 0 25 25" fill="none" xmlns="http://www.w3.org/2000/svg">
<path d="M13.0783 23.8495C10.8894 23.8946 8.73627 23.2897 6.89126 22.1111C5.04625 20.9325 3.59221 19.2332 2.71303 17.2282C1.83385 15.2232 1.56892 13.0024 1.95195 10.8469C2.33497 8.6913 3.34889 6.69775 4.86501 5.11835C6.38112 3.53894 8.33133 2.44463 10.4694 1.97382C12.6075 1.503 14.8373 1.67683 16.8766 2.47333C18.9159 3.26982 20.6731 4.6532 21.9261 6.4485C23.1792 8.24379 23.8716 10.3703 23.9159 12.5592C23.9736 15.4929 22.8647 18.3296 20.8327 20.4464C18.8007 22.5633 16.0119 23.7872 13.0783 23.8495Z" stroke="#0A0A0A" stroke-width="2.1" stroke-miterlimit="10"/>
<path d="M16.9329 16.9798C16.8844 17.0562 16.8211 17.122 16.7468 17.1736C16.6726 17.2252 16.589 17.2615 16.5006 17.2802C16.4121 17.299 16.3209 17.2999 16.2321 17.2829C16.1433 17.2659 16.0587 17.2313 15.9834 17.1813C15.149 16.7188 14.2431 16.3995 13.3031 16.2366C11.6318 15.9461 9.91886 15.9956 8.26704 16.382C8.08494 16.4214 7.89604 16.4145 7.71735 16.3617C7.59081 16.3112 7.48378 16.2211 7.41276 16.1048C7.34174 15.9886 7.31027 15.8524 7.32312 15.7168C7.32463 15.5752 7.37473 15.4384 7.46471 15.3291C7.55469 15.2197 7.67943 15.1444 7.81809 15.1157C8.35877 14.9815 8.90582 14.8761 9.45765 14.7997C10.0628 14.7185 10.676 14.7023 11.2852 14.6568C13.0296 14.6391 14.7536 15.0354 16.3149 15.8134C16.4262 15.8711 16.5381 15.928 16.6453 15.9938C16.8113 16.0892 16.934 16.2452 16.9876 16.429C17.0412 16.6127 17.0215 16.8101 16.9329 16.9798Z" fill="#0A0A0A"/>
<path d="M18.1566 14.3877C18.0576 14.5625 17.8939 14.6914 17.7009 14.7469C17.5078 14.8023 17.3008 14.7798 17.1242 14.6841C15.2813 13.6766 13.1946 13.2006 11.097 13.309C10.0163 13.3277 8.94059 13.4559 7.88572 13.6916C7.73844 13.7315 7.58526 13.7455 7.43319 13.733C7.25296 13.7076 7.08728 13.62 6.9648 13.4853C6.84232 13.3507 6.77082 13.1775 6.76253 12.9956C6.75425 12.8138 6.80947 12.6348 6.91919 12.4896C7.02891 12.3443 7.18622 12.242 7.36339 12.2003C8.07492 12.0492 8.79209 11.9128 9.51418 11.8234C10.164 11.7422 10.8244 11.7349 11.2882 11.7064C13.3934 11.6469 15.4823 12.0926 17.38 13.006C17.5655 13.0977 17.7458 13.1994 17.9202 13.3106C18.0898 13.426 18.2086 13.6018 18.2526 13.8021C18.2965 14.0024 18.2623 14.2119 18.1566 14.3877Z" fill="#0A0A0A"/>
<path d="M19.7858 11.4936C19.7242 11.6123 19.6384 11.7168 19.534 11.8002C19.4295 11.8837 19.3088 11.9443 19.1794 11.9781C19.05 12.0119 18.9151 12.0182 18.7832 11.9966C18.6512 11.975 18.525 11.926 18.4132 11.8527C17.2512 11.1984 15.9909 10.737 14.6811 10.4865C13.0796 10.1705 11.4394 10.0982 9.81635 10.272C8.87008 10.3727 7.93269 10.5555 6.99292 10.7155C6.74504 10.7733 6.48462 10.7328 6.26594 10.6026C6.04726 10.4723 5.88744 10.2624 5.82016 10.017C5.78045 9.8914 5.76821 9.75877 5.78407 9.62803C5.79992 9.49728 5.8436 9.37146 5.91217 9.25901C5.98075 9.14657 6.07249 9.05011 6.18147 8.97616C6.29045 8.90221 6.41414 8.85247 6.54396 8.83028C7.65674 8.62235 8.77673 8.45423 9.89845 8.30396C10.4223 8.23411 10.9583 8.24547 11.2897 8.22923C13.6666 8.17346 16.0285 8.62336 18.2184 9.54913C18.6034 9.72132 18.9784 9.91952 19.348 10.1242C19.5848 10.2506 19.7632 10.4644 19.8449 10.7201C19.9266 10.9758 19.9054 11.2533 19.7858 11.4936Z" fill="#0A0A0A"/>
</svg>
