<svg width="88" height="87" viewBox="0 0 88 87" fill="none" xmlns="http://www.w3.org/2000/svg">
<path d="M43.9463 0C19.6749 0 0 19.3675 0 43.2596C0 67.1518 19.6749 86.5193 43.9463 86.5193C68.2177 86.5193 87.8926 67.1518 87.8926 43.2596C87.8926 19.3675 68.2177 0 43.9463 0ZM64.103 62.3964C63.3152 63.6718 61.629 64.0691 60.3399 63.2937C50.0206 57.0835 37.0321 55.68 21.7323 59.1215C20.2609 59.4548 18.7895 58.5447 18.4509 57.0963C18.1124 55.6479 19.0304 54.1995 20.5083 53.8662C37.2469 50.0979 51.6092 51.7193 63.1915 58.6857C64.4806 59.4612 64.8908 61.1211 64.103 62.3964ZM69.4807 50.617C68.4846 52.2064 66.3752 52.6998 64.7671 51.7257C52.9569 44.5799 34.9487 42.5098 20.977 46.682C19.1671 47.2203 17.253 46.2141 16.6996 44.4324C16.1527 42.6508 17.1749 40.7666 18.9848 40.2283C34.9487 35.4601 54.7864 37.7673 68.3544 45.977C69.9625 46.9511 70.4703 49.0276 69.4807 50.6106V50.617ZM69.943 38.3505C55.776 30.0703 32.4096 29.3076 18.8871 33.3452C16.7126 33.9925 14.4209 32.7876 13.7633 30.6471C13.1058 28.5065 14.3297 26.2506 16.5043 25.5969C32.0255 20.9569 57.8333 21.8541 74.1423 31.3841C76.0955 32.5248 76.7335 35.0115 75.5811 36.9277C74.4222 38.8504 71.8961 39.4848 69.9495 38.3441L69.943 38.3505Z" fill="black"/>
</svg>
