<svg width="88" height="87" viewBox="0 0 88 87" fill="none" xmlns="http://www.w3.org/2000/svg">
<path d="M43.9463 0C19.6749 0 0 19.3675 0 43.2596C0 67.1518 19.6749 86.5193 43.9463 86.5193C68.2177 86.5193 87.8926 67.1518 87.8926 43.2596C87.8926 19.3675 68.2177 0 43.9463 0ZM72.3388 29.7114C72.0784 35.3832 68.0484 43.1571 60.2552 53.0203C52.2017 63.3257 45.3851 68.4784 39.8121 68.4784C36.3615 68.4784 33.4382 65.3445 31.0489 59.0638C29.4538 53.3151 27.8652 47.56 26.2701 41.8048C24.4927 35.537 22.5916 32.3967 20.5603 32.3967C20.1176 32.3967 18.5616 33.3131 15.9118 35.1397L13.1253 31.6084C16.0485 29.0769 18.9327 26.5518 21.7713 24.0203C25.6711 20.7005 28.5944 18.9573 30.5475 18.7843C35.157 18.3421 37.9956 21.444 39.0634 28.0835C40.2092 35.2486 41.01 39.7091 41.4593 41.4523C42.7874 47.3933 44.2523 50.367 45.8474 50.367C47.0844 50.367 48.9464 48.438 51.4334 44.5799C53.914 40.7217 55.2421 37.7929 55.4179 35.7741C55.776 32.4479 54.4478 30.7816 51.4334 30.7816C50.0141 30.7816 48.5492 31.1021 47.0453 31.7366C49.962 22.3476 55.5221 17.7909 63.7319 18.0537C69.8193 18.2267 72.6904 22.1105 72.3388 29.7114Z" fill="#010201"/>
</svg>
