<svg width="88" height="88" viewBox="0 0 88 88" fill="none" xmlns="http://www.w3.org/2000/svg">
<path d="M37.8945 34.9824L53.0412 43.7283L37.8945 52.4743V34.9824Z" fill="#010201"/>
<path d="M43.7296 0C19.5779 0 0 19.5779 0 43.7296C0 67.8813 19.5779 87.4592 43.7296 87.4592C67.8813 87.4592 87.4592 67.8813 87.4592 43.7296C87.4592 19.5779 67.8813 0 43.7296 0ZM71.6647 57.7684C70.991 60.2756 69.015 62.2515 66.5079 62.9188C61.96 64.1368 43.7296 64.1368 43.7296 64.1368C43.7296 64.1368 25.4927 64.1368 20.9448 62.9188C18.4377 62.2515 16.4618 60.2756 15.7945 57.7684C14.5765 53.2206 14.5765 43.7296 14.5765 43.7296C14.5765 43.7296 14.5765 34.2451 15.7945 29.6973C16.4618 27.1901 18.4377 25.2142 20.9448 24.5404C25.4927 23.3225 43.7296 23.3225 43.7296 23.3225C43.7296 23.3225 61.96 23.3225 66.5079 24.5404C69.015 25.2142 70.991 27.1901 71.6647 29.6973C72.8827 34.2451 72.8827 43.7296 72.8827 43.7296C72.8827 43.7296 72.8827 53.2206 71.6647 57.7684Z" fill="#010201"/>
</svg>
